<?xml version="1.0" encoding="UTF-8" standalone="no"?>
<!-- Created with Inkscape (http://www.inkscape.org/) -->

<svg
   width="292.66699mm"
   height="126.31236mm"
   viewBox="0 0 292.66699 126.31236"
   version="1.1"
   id="svg1"
   xml:space="preserve"
   inkscape:version="1.4.4 (dcaf3e7d9e, 2026-05-05)"
   sodipodi:docname="Braak_AD.svg"
   xmlns:inkscape="http://www.inkscape.org/namespaces/inkscape"
   xmlns:sodipodi="http://sodipodi.sourceforge.net/DTD/sodipodi-0.dtd"
   xmlns="http://www.w3.org/2000/svg"
   xmlns:svg="http://www.w3.org/2000/svg"><sodipodi:namedview
     id="namedview1"
     pagecolor="#ffffff"
     bordercolor="#000000"
     borderopacity="0.25"
     inkscape:showpageshadow="2"
     inkscape:pageopacity="0.0"
     inkscape:pagecheckerboard="0"
     inkscape:deskcolor="#d1d1d1"
     inkscape:document-units="mm"
     inkscape:zoom="2.096508"
     inkscape:cx="342.71274"
     inkscape:cy="165.27483"
     inkscape:window-width="1366"
     inkscape:window-height="696"
     inkscape:window-x="0"
     inkscape:window-y="0"
     inkscape:window-maximized="1"
     inkscape:current-layer="layer1"><inkscape:page
       x="20.347332"
       y="4.6335578"
       width="143.89488"
       height="99.04245"
       id="page2"
       margin="0"
       bleed="0" /></sodipodi:namedview><defs
     id="defs1"><rect
       x="20.033314"
       y="358.69171"
       width="132.60146"
       height="115.43004"
       id="rect3" /><rect
       x="704.98181"
       y="569.51849"
       width="31.480921"
       height="52.468201"
       id="rect2" /><clipPath
       clipPathUnits="userSpaceOnUse"
       id="clipPath5"><rect
         style="fill:#ff0000;stroke:none;stroke-width:1.5;stroke-dasharray:0.750001, 0.750001"
         id="rect5"
         width="21.201921"
         height="21.201921"
         x="-21.924189"
         y="35.290707"
         transform="rotate(45)" /></clipPath></defs><g
     inkscape:label="Layer 1"
     inkscape:groupmode="layer"
     id="layer1"
     transform="translate(-3.5685985,-16.108014)"><g
       id="g33"
       transform="matrix(0.65908187,0,0,0.67064174,-112.94776,-26.018474)"><path
         style="opacity:0.8;fill:#ffcece;fill-opacity:1;stroke:#717171;stroke-width:4.57901;stroke-dasharray:none;stroke-opacity:1"
         d="m 352.35575,141.85096 18.1731,-2.52404 c 0,0 10.60095,-1.00961 11.10575,4.03846 0.50482,5.04808 9.08656,7.06731 9.08656,7.06731 0,0 8.07691,8.58173 10.60095,10.09615 2.52405,1.51443 8.58174,0.50481 8.58174,0.50481 0,0 15.64904,-2.01923 13.62979,-10.60096 -2.01922,-8.58173 3.02885,-16.65865 -3.53364,-22.21154 -6.56251,-5.55288 2.52405,-12.11538 -7.57211,-17.66827 C 402.33174,105 401.82691,99.951922 395.76922,95.91346 389.71153,91.875 387.69231,91.875 379.11058,87.836538 c -8.58173,-4.038462 -16.65867,-8.581731 -20.19231,-8.581731 -3.53365,0 -7.57211,-7.067307 -15.64905,-6.5625 -8.07691,0.504809 -7.06731,2.019231 -16.15384,0.504809 -9.08653,-1.514425 -6.05769,-1.514425 -16.65865,-0.504809 -10.60098,1.009615 -16.15384,0 -24.73557,1.514422 -8.58174,1.514424 -21.70674,6.5625 -25.24039,7.572115 -3.53366,1.009616 -6.5625,0 -16.65866,6.057694 -10.09615,6.057691 -14.63942,8.581731 -17.16346,11.610575 -2.52404,3.028847 -6.05769,3.533657 -7.57211,8.581727 -1.51443,5.04808 -5.55289,10.60097 -8.07693,15.64904 -2.52403,5.04808 0,11.61058 2.01923,14.63943 2.01923,3.02884 14.13462,8.07692 18.17308,8.58173 4.03846,0.5048 21.20192,7.57211 25.74519,7.57211 4.54327,0 4.03846,-3.02884 4.54327,4.03846 0.50481,7.06731 6.56251,10.60097 11.61058,11.10577 5.04809,0.50481 16.65866,1.00962 20.19231,3.02885 3.53364,2.01923 8.07691,2.52404 11.10578,2.52404 3.02884,0 7.06728,0 9.08653,5.04807 2.01922,5.04808 2.52404,-0.5048 6.56249,5.55289 4.03846,6.05769 3.53366,2.01923 10.09615,12.62019 6.56251,10.60096 10.60096,14.13462 12.6202,15.14423 2.01922,1.00962 14.63943,1.51442 16.65865,1.51442 2.01924,0 1.51442,-10.09615 -2.01922,-11.10577 -3.53367,-1.00961 0,-3.53365 -3.53367,-7.0673 -3.53365,-3.53366 -3.53365,-11.10577 -4.03845,-15.14423 -0.50482,-4.03846 -4.03846,-13.125 -0.50482,-15.14423 3.53367,-2.01923 2.52405,-3.02885 -1.51442,-6.5625 -4.03844,-3.53366 -4.03844,-0.50481 -4.03844,-6.5625 0,-6.0577 8.5817,-11.61058 8.5817,-11.61058 z"
         id="path13" /><path
         style="opacity:0.8;fill:#ffcece;fill-opacity:1;stroke:#717171;stroke-width:4.57901;stroke-dasharray:none;stroke-opacity:1"
         d="m 405.36058,167.59616 c -2.01925,4.03846 -3.02884,9.59134 -5.55289,15.14422 -2.52405,5.55289 -11.10578,5.55289 -16.15384,10.09616 -5.0481,4.54326 -12.11538,5.04807 -19.68752,5.04807 -7.57211,0 -11.10575,0 -12.11537,-3.53365 -1.00963,-3.53366 -6.05769,-5.55288 -7.57211,-19.18269 -1.51443,-13.62981 2.52404,-6.05769 1.51442,-13.62981 -1.00963,-7.57212 -8.58174,-8.58173 -2.52405,-12.62019 6.05769,-4.03846 7.57213,-7.57212 17.66829,-11.10577 10.09616,-3.53366 12.65951,-0.57871 18.17307,2.01923 6.99705,3.29695 13.125,11.61058 16.65864,16.15385 3.53367,4.54326 11.2435,8.30633 9.59136,11.61058 z"
         id="path14"
         sodipodi:nodetypes="sssssssssass" /><path
         style="opacity:0.8;fill:#ffcece;fill-opacity:1;stroke:#717171;stroke-width:4.57901;stroke-dasharray:none;stroke-opacity:1"
         d="m 311.97116,174.66346 -2.52405,-14.63942 12.11538,-7.57212 -3.53364,-8.58173 c 0,0 -7.06732,-8.07692 1.00962,-6.05769 8.07691,2.01923 16.65864,2.01923 18.17306,5.55288 1.51443,3.53366 4.54327,12.6202 4.54327,12.6202 l 4.03847,6.05769 -1.51442,19.18269 c 0,0 5.04806,7.57212 5.04806,9.59134 0,2.01924 10.60098,16.65866 10.60098,16.65866 l 1.0096,7.57211 -19.18269,-0.5048 -24.23075,-31.80289 z"
         id="path15" /><path
         style="opacity:0.8;fill:#ffcece;fill-opacity:1;stroke:#717171;stroke-width:4.57901;stroke-dasharray:none;stroke-opacity:1"
         d="m 288.2452,132.25961 c 0,0 -19.18271,4.03847 -21.20193,2.01923 -2.01922,-2.01923 -12.11539,-7.0673 -9.08654,-11.10576 3.02884,-4.03847 8.58174,-7.06731 14.1346,-11.10577 5.55289,-4.03847 24.23078,-8.58173 31.80289,-6.0577 7.57211,2.52404 12.6202,1.00962 20.69711,3.53366 8.07694,2.52404 24.73558,4.03846 27.25963,8.07692 2.52404,4.03846 6.05768,0.50481 6.05768,6.05769 0,5.55289 6.56252,11.10577 -0.50479,10.60096 -7.06732,-0.5048 -9.08654,2.01924 -11.61058,0 -2.52405,-2.01923 1.00962,-8.58173 -3.53365,-9.59134 -4.54329,-1.00962 -4.54329,-1.51442 -14.13462,-3.53366 -9.59136,-2.01923 -17.16347,5.04808 -25.24038,5.04808 -8.07693,0 -14.63942,6.05769 -14.63942,6.05769 z"
         id="path16" /><path
         style="opacity:0.8;fill:none;fill-opacity:1;stroke:#717171;stroke-width:0.579;stroke-dasharray:none;stroke-opacity:1"
         d="m 275.1202,140.84134 -21.20193,-2.01923 c 0,0 -4.03847,-3.53365 -6.5625,-10.60096 -2.52404,-7.06731 -6.5625,-10.09615 -1.00962,-15.64904 5.55289,-5.55288 16.15385,-17.668266 25.74518,-16.153841 9.59136,1.514422 23.22116,-5.048078 35.33656,-2.52404 12.11538,2.52404 16.15384,6.562501 26.25,8.581731 10.09616,2.01923 17.16344,5.55288 22.21153,2.01923 5.04807,-3.53365 14.13463,-7.067305 14.13463,0 0,7.06731 0,7.57212 2.01922,15.64904 2.01922,8.07692 6.05769,5.55288 2.52404,8.58173 -3.53367,3.02885 -3.53367,3.02885 -3.53367,3.02885"
         id="path17" /><path
         style="opacity:0.8;fill:none;fill-opacity:1;stroke:#717171;stroke-width:0.579001;stroke-dasharray:none;stroke-opacity:1"
         d="m 365.69829,169.19569 c 0,0 0.17847,9.63773 1.60629,10.17316 1.4278,0.53543 4.28342,0.89238 4.99734,0.53543 0.7139,-0.35695 1.07085,-1.07086 0.17847,-3.0341 -0.89239,-1.96324 1.24933,0.71391 2.32021,0.35696 1.07084,-0.35696 7.13904,4.4619 6.24665,0.53542 -0.89236,-3.92648 -4.10496,-1.78476 -4.10496,-6.0682 0,-4.28343 5.17583,3.56953 5.53278,4.64039 0.35695,1.07086 4.6404,0.17848 3.56952,-2.14172 -1.07084,-2.32019 -1.42779,-2.49867 0.35695,-3.03409 1.78478,-0.53543 8.20994,-1.42782 3.03411,-2.85563 -5.1758,-1.42781 -6.60363,-2.14172 -7.85296,-3.21258 -1.24934,-1.07085 4.64039,1.42782 6.60363,0.35696 1.96323,-1.07086 4.64039,0 2.14172,-2.3202 -2.49867,-2.32019 1.24934,-1.60629 -3.74801,-0.89238 -4.99734,0.71391 3.03411,0.35695 3.56952,-1.78476 0.53544,-2.14172 5.71127,-2.85563 0.53544,-3.21258 -5.17581,-0.35695 -4.99735,1.24934 -6.96058,1.42781 -1.96324,0.17848 4.10496,-1.24933 3.39106,-3.39105 -0.71393,-2.14172 2.85562,-5.17582 -2.49867,-2.85562 -5.3543,2.32019 -8.38841,2.85562 -11.06554,3.92648 -2.67716,1.07086 11.95792,-3.92648 9.63771,-5.3543 -2.32018,-1.42781 -3.74801,-4.64038 -7.13904,-1.96324 -3.39106,2.67715 1.60629,-1.96324 -1.07087,-3.748 -2.67714,-1.78477 -2.67714,-2.49868 -2.49867,-0.53543 0.17848,1.96324 1.60628,1.96324 -1.60629,-0.35696 -3.21257,-2.32019 -4.81886,-7.13905 -5.71124,-1.42781 -0.89239,5.71125 1.07085,5.88972 1.07085,5.88972 0,0 -0.17847,-8.74534 -3.56952,-6.7821 -3.39106,1.96324 -8.20992,0.53543 -4.99735,5.88972 3.21257,5.3543 2.32021,6.78211 2.32021,6.78211 0,0 -2.85565,-13.02878 -6.24668,-8.92382 -3.39106,4.10495 -6.96058,3.39105 -2.67716,6.7821 4.28345,3.39105 6.06819,3.74801 6.06819,3.74801 0,0 -11.24399,-10.35164 -9.63771,-4.81887 1.60629,5.53277 3.92647,6.78211 4.81886,8.3884 0.89238,1.60628 8.20991,3.92648 8.20991,3.92648 0,0 -0.35695,-1.07086 -2.85562,0.89238 -2.49867,1.96324 -7.67448,1.78477 -7.67448,4.81887 0,3.0341 -2.85562,8.56687 1.60629,3.92648 4.46191,-4.64039 10.35164,-5.88973 6.78209,-4.10496 -3.56952,1.78477 -11.42249,9.45925 -5.35429,9.81621 6.06822,0.35695 9.1023,-11.06555 7.49601,-7.31754 -1.60628,3.74801 5.71125,8.56687 5.17583,9.45925 -0.53543,0.89239 0,-12.1364 0,-12.1364 z"
         id="path18" /><path
         style="opacity:0.8;fill:none;fill-opacity:1;stroke:#717171;stroke-width:0.579001;stroke-dasharray:none;stroke-opacity:1"
         d="m 230.77008,126.71829 c 0,0 -10.17316,1.96324 -9.28078,-2.14171 0.89238,-4.10496 4.10496,-5.88973 0.35695,-6.42516 -3.748,-0.53543 -6.42515,-1.24933 -6.42515,-1.24933 v 0.17847 0"
         id="path19" /><path
         style="opacity:0.8;fill:none;fill-opacity:1;stroke:#717171;stroke-width:0.579001;stroke-dasharray:none;stroke-opacity:1"
         d="m 223.98797,118.68685 c 3.92648,-2.67715 1.96324,-4.28343 3.92648,-2.67715 1.96324,1.60629 1.96324,1.60629 1.96324,1.60629"
         id="path20" /><path
         style="opacity:0.8;fill:none;fill-opacity:1;stroke:#717171;stroke-width:0.579001;stroke-dasharray:none;stroke-opacity:1"
         d="m 225.95121,103.51635 c 0.17848,4.46191 -4.81886,5.53277 0.17848,4.46191 4.99734,-1.07085 6.60363,0.53543 6.60363,0.53543"
         id="path21" /><path
         style="opacity:0.8;fill:none;fill-opacity:1;stroke:#717171;stroke-width:0.579001;stroke-dasharray:none;stroke-opacity:1"
         d="m 225.2373,108.15674 c -1.42781,3.56953 -1.42781,3.56953 -1.42781,3.56953"
         id="path22" /><path
         style="opacity:0.8;fill:none;fill-opacity:1;stroke:#717171;stroke-width:0.579001;stroke-dasharray:none;stroke-opacity:1"
         d="m 238.97999,104.76569 c -2.67714,5.17581 -4.28343,7.31753 -2.67714,5.17581 1.60628,-2.14171 5.35429,-4.28343 5.88972,-3.39105 0.53543,0.89238 0.53543,0.89238 0.53543,0.89238"
         id="path23" /><path
         style="opacity:0.8;fill:none;fill-opacity:1;stroke:#717171;stroke-width:0.579001;stroke-dasharray:none;stroke-opacity:1"
         d="m 260.9326,96.020341 c 5.71125,-3.926483 3.56953,-4.818864 5.71125,-3.926483 2.14172,0.892382 -7.49602,2.320195 -0.89238,-2.498669 6.60362,-4.818867 6.24668,-5.889726 8.03142,-6.960584 1.78478,-1.070859 -1.24933,3.034101 -3.03408,0.356954 -1.78477,-2.677149 -1.78477,-5.53277 -1.78477,-5.53277"
         id="path24" /><path
         style="opacity:0.8;fill:none;fill-opacity:1;stroke:#717171;stroke-width:0.579001;stroke-dasharray:none;stroke-opacity:1"
         d="m 231.48398,97.0912 c 7.49601,-1.784766 8.92382,-5.889723 11.95792,-4.461912 3.0341,1.42781 3.0341,1.42781 3.0341,1.42781"
         id="path25" /><path
         style="opacity:0.8;fill:none;fill-opacity:1;stroke:#717171;stroke-width:0.579001;stroke-dasharray:none;stroke-opacity:1"
         d="m 277.5309,89.238234 c 2.49867,6.246678 5.35429,-0.178474 2.49867,6.246678 -2.85562,6.425148 3.56955,-8.566872 3.56955,-8.566872"
         id="path26" /><path
         style="opacity:0.8;fill:none;fill-opacity:1;stroke:#717171;stroke-width:0.579001;stroke-dasharray:none;stroke-opacity:1"
         d="m 296.98484,76.030975 c 0.89239,4.64039 -0.35695,1.427814 1.07087,4.818864 1.4278,3.391054 1.24934,3.748008 1.24934,3.748008 h -0.35698"
         id="path27" /><path
         style="opacity:0.8;fill:none;fill-opacity:1;stroke:#717171;stroke-width:0.579001;stroke-dasharray:none;stroke-opacity:1"
         d="m 303.05306,79.243551 c 11.244,2.67715 8.38837,4.818867 11.244,2.67715 2.85562,-2.14172 6.96057,-1.070862 6.96057,-1.070862 l 0.17849,0.178478 v 0"
         id="path28" /><path
         style="opacity:0.8;fill:none;fill-opacity:1;stroke:#717171;stroke-width:0.579001;stroke-dasharray:none;stroke-opacity:1"
         d="m 324.47023,88.881282 c 14.09962,-1.427813 15.52745,-3.391053 15.88439,-0.535429 0.35695,2.855624 -11.24402,1.96324 -1.24933,-0.713907 9.99469,-2.677147 4.81885,-1.606288 4.81885,-1.606288"
         id="path29" /><path
         style="opacity:0.8;fill:none;fill-opacity:1;stroke:#717171;stroke-width:0.579001;stroke-dasharray:none;stroke-opacity:1"
         d="m 419.06274,137.96231 c -4.46191,-0.89238 -3.03408,-3.92648 -4.64037,-0.7139 -1.60631,3.21257 -4.28344,-3.03411 -1.96326,-5.71125 2.32021,-2.67715 -0.53541,1.96324 -6.60363,0.35695 -6.06819,-1.60629 -18.38306,-8.74535 -19.45394,-7.13906 -1.07084,1.60629 2.67716,-0.89238 1.24934,-2.49867 -1.4278,-1.60629 -1.4278,-1.60629 -1.4278,-1.60629"
         id="path30" /><path
         style="opacity:0.8;fill:none;fill-opacity:1;stroke:#717171;stroke-width:0.579001;stroke-dasharray:none;stroke-opacity:1"
         d="m 376.76383,135.46364 c 0,0 12.13639,-10.70859 15.17049,-4.10496 3.03411,6.60363 0.53544,9.63773 0.53544,9.63773 v 0 c 0,0 -0.89238,-8.03144 2.49867,-6.42515 3.39106,1.60629 19.27546,10.17316 17.66917,11.42249 -1.60629,1.24934 -7.13907,1.96324 -7.13907,1.96324 l -4.99734,-3.0341 7.49602,6.0682 c 0,0 2.14172,-6.24667 6.42516,-4.64038 4.28342,1.60628 4.28342,1.60628 4.28342,1.60628"
         id="path31" /><path
         style="opacity:0.8;fill:none;fill-opacity:1;stroke:#717171;stroke-width:0.579001;stroke-dasharray:none;stroke-opacity:1"
         d="m 380.15489,88.881282 c 0,0 -6.78212,14.635068 -8.56689,12.136398 -1.78475,-2.498669 0.89239,4.46191 2.14172,4.10496 1.24934,-0.35695 1.78477,-3.92648 2.49867,-1.60629 0.7139,2.3202 0.7139,2.3202 0.7139,2.3202"
         id="path32" /><path
         style="opacity:0.8;fill:none;fill-opacity:1;stroke:#717171;stroke-width:0.579001;stroke-dasharray:none;stroke-opacity:1"
         d="m 304.48086,158.48711 c 0,0 -18.20461,10.88706 -18.20461,8.74534 0,-2.14172 6.06819,2.67715 0.53544,3.21258 -5.53278,0.53543 -13.0288,1.42781 -14.63508,-1.24934 -1.60629,-2.67714 -8.92382,0.35696 -4.28342,-6.0682 4.64037,-6.42515 4.64037,-6.42515 4.64037,-6.42515"
         id="path33" /></g><path
       style="fill:#ff0000;stroke:none;stroke-width:0.981919;stroke-dasharray:0.49096, 0.49096"
       d="m 103.56173,97.557335 4.57353,5.703485 0.94102,-0.41322 -4.6908,-5.707357 0.95175,-0.595568 -2.83093,-1.315295 0.20165,2.642227 z"
       id="path6-3"
       sodipodi:nodetypes="cccccccc" /><path
       style="fill:#ff0000;stroke:none;stroke-width:0.981919;stroke-dasharray:0.49096, 0.49096"
       d="m 90.266174,62.456053 -4.573533,5.703485 -0.94102,-0.41322 4.690803,-5.707357 -0.95175,-0.595568 2.83093,-1.315295 -0.20165,2.642227 z"
       id="path6-3-3"
       sodipodi:nodetypes="cccccccc" /><path
       style="fill:#ff0000;stroke:none;stroke-width:3.0413;stroke-dasharray:1.52065, 1.52065"
       d="m 47.613185,43.243078 c 4.261522,14.401269 8.83983,35.293252 15.178357,29.056882 0.494219,4.099454 0.529821,2.714689 0.529821,2.714689 -5.344461,-0.13271 -11.55266,-6.224111 -16.618191,-30.79103 l -1.470992,0.965111 1.62255,-4.651802 2.606951,1.67751 z"
       id="path6-3-3-6"
       sodipodi:nodetypes="cccccccc" /><path
       style="fill:#ff0000;stroke:none;stroke-width:2.35722;stroke-dasharray:1.17861, 1.17861"
       d="m 77.799311,31.543893 c -5.60236,7.856758 -3.664029,16.95652 -0.228588,20.267337 -2.152197,1.908157 -1.268142,1.356109 -1.268142,1.356109 -2.428669,-3.510674 -6.010687,-10.083655 0.434688,-21.914084 l -2.427229,-0.727533 3.386152,-0.872311 1.697236,1.597198 z"
       id="path6-3-3-6-2"
       sodipodi:nodetypes="cccccccc" /><path
       style="fill:#ff0000;stroke:none;stroke-width:2.35722;stroke-dasharray:1.17861, 1.17861"
       d="m 116.05593,35.546321 c -7.68169,5.84009 -8.53134,15.105126 -6.23327,19.286356 -2.62154,1.18345 -1.61348,0.918645 -1.61348,0.918645 -1.27734,-4.073288 -2.74722,-11.413202 6.91882,-20.797739 l -2.10195,-1.415114 3.49247,0.171941 1.14675,2.028948 z"
       id="path6-3-3-6-2-0"
       sodipodi:nodetypes="cccccccc" /><path
       style="fill:#ff0000;stroke:none;stroke-width:1.70834;stroke-dasharray:0.854165, 0.854165"
       d="m 85.657704,79.197959 c 0.851139,6.043811 3.048966,2.19472 3.670665,2.873581 l -1.422221,2.29164 c 0,0 -2.33205,0.893075 -3.862601,-4.774304 l -2.226763,0.212973 2.322828,-2.473343 3.643209,1.466645 z"
       id="path6-3-3-6-2-5"
       sodipodi:nodetypes="cccccccc" /><path
       style="fill:#ff0000;stroke:none;stroke-width:1.70834;stroke-dasharray:0.854165, 0.854165"
       d="m 85.060321,72.155404 c -3.749326,4.816081 0.544628,3.717037 0.489497,4.635908 l -2.635598,0.572667 c 0,0 -2.263933,-1.053874 0.742323,-6.096115 l -1.702145,-1.45139 3.392674,-0.05214 1.481044,3.63738 z"
       id="path6-3-3-6-2-5-4"
       sodipodi:nodetypes="cccccccc" /><path
       style="fill:#ff0000;stroke:none;stroke-width:2.024;stroke-dasharray:1.012, 1.012"
       d="m 66.325033,77.647418 c 4.566053,-6.174998 11.719714,-5.15896 14.926767,-2.143015 0.933748,-2.266936 0.721466,-1.357718 0.721466,-1.357718 -3.13191,-2.021181 -8.782115,-4.869928 -16.098082,2.498899 l -1.074877,-2.283645 0.104855,3.364756 1.555973,1.493639 z"
       id="path6-3-3-6-2-5-9"
       sodipodi:nodetypes="cccccccc" /><path
       style="fill:#ff0000;stroke:none;stroke-width:2.024;stroke-dasharray:1.012, 1.012"
       d="m 148.78267,56.555738 c 2.58671,7.231083 -2.24054,12.607406 -6.53144,13.591959 1.36307,2.037876 0.72604,1.355279 0.72604,1.355279 3.42277,-1.476043 8.93518,-4.583062 6.88804,-14.763059 l 2.49539,0.378753 -2.85327,-1.786469 -2.10706,0.460765 z"
       id="path6-3-3-6-2-5-9-2"
       sodipodi:nodetypes="cccccccc" /><path
       style="fill:#ff0000;stroke:none;stroke-width:0.981919;stroke-dasharray:0.49096, 0.49096"
       d="m 111.33566,108.32542 4.57353,5.70349 0.94102,-0.41322 -4.6908,-5.70736 0.95175,-0.59557 -2.83093,-1.31529 0.20165,2.64222 z"
       id="path6-3-1"
       sodipodi:nodetypes="cccccccc" /></g></svg>
