<?xml version="1.0" encoding="UTF-8" standalone="no"?>
<!-- Created with Inkscape (http://www.inkscape.org/) -->

<svg
   width="297mm"
   height="210mm"
   viewBox="0 0 297 210"
   version="1.1"
   id="svg1"
   xml:space="preserve"
   inkscape:version="1.4.4 (dcaf3e7d9e, 2026-05-05)"
   sodipodi:docname="brain_regions.svg"
   xmlns:inkscape="http://www.inkscape.org/namespaces/inkscape"
   xmlns:sodipodi="http://sodipodi.sourceforge.net/DTD/sodipodi-0.dtd"
   xmlns:xlink="http://www.w3.org/1999/xlink"
   xmlns="http://www.w3.org/2000/svg"
   xmlns:svg="http://www.w3.org/2000/svg"><sodipodi:namedview
     id="namedview1"
     pagecolor="#ffffff"
     bordercolor="#000000"
     borderopacity="0.25"
     inkscape:showpageshadow="2"
     inkscape:pageopacity="0.0"
     inkscape:pagecheckerboard="0"
     inkscape:deskcolor="#d1d1d1"
     inkscape:document-units="mm"
     inkscape:zoom="1.048254"
     inkscape:cx="569.04149"
     inkscape:cy="397.32738"
     inkscape:window-width="1920"
     inkscape:window-height="1080"
     inkscape:window-x="0"
     inkscape:window-y="0"
     inkscape:window-maximized="1"
     inkscape:current-layer="layer1" /><defs
     id="defs1"><linearGradient
       id="linearGradient4"
       inkscape:collect="always"><stop
         style="stop-color:#000000;stop-opacity:1;"
         offset="0"
         id="stop4" /><stop
         style="stop-color:#000000;stop-opacity:0;"
         offset="1"
         id="stop5" /></linearGradient><rect
       x="20.033314"
       y="358.69171"
       width="132.60146"
       height="115.43004"
       id="rect3" /><rect
       x="704.98181"
       y="569.51849"
       width="31.480921"
       height="52.468201"
       id="rect2" /><rect
       x="704.98181"
       y="569.51849"
       width="31.480921"
       height="52.468201"
       id="rect2-5" /><linearGradient
       inkscape:collect="always"
       xlink:href="#linearGradient4"
       id="linearGradient5"
       x1="702.44702"
       y1="563.93164"
       x2="743.94623"
       y2="563.93164"
       gradientUnits="userSpaceOnUse" /></defs><g
     inkscape:label="Layer 1"
     inkscape:groupmode="layer"
     id="layer1"><path
       id="path1"
       style="opacity:0.8;fill:#ffdddd;fill-opacity:1;stroke:#717171;stroke-width:3.34313;stroke-dasharray:none;stroke-opacity:1"
       d="m 85.804976,17.781303 c -0.384616,-0.01665 -0.889853,0.142011 -1.511795,0.504813 -2.211355,1.289959 -2.764061,-0.184184 -5.712539,2.027176 -2.948477,2.211357 -0.184218,-0.184362 -2.211296,4.791197 -2.027085,4.975556 6.081231,2.395713 3.132755,5.712752 -0.612152,0.688665 -1.843056,1.658394 -2.02734,3.685473 -0.184277,2.027079 3.16977,-0.0877 2.395639,3.501505 0,0 -1.542985,0.816299 -3.869659,4.054129 -1.1829,1.646139 6.818252,3.501391 2.76409,5.159905 -4.054154,1.658505 -9.398368,2.026852 -6.818451,-2.027285 2.579925,-4.054132 2.395685,0.921576 1.658564,-4.05395 -0.737119,-4.975556 -2.39558,-2.027099 -0.921336,-5.528418 1.474238,-3.501318 6.081341,-3.13289 2.027178,-4.975691 -4.054163,-1.842798 -5.52854,-1.10571 -3.685742,-4.238468 1.842796,-3.132759 -0.368611,-5.343926 -0.368611,-5.343926 l -6.818376,0.552729 -5.896654,1.289952 -3.317129,2.579904 -3.317127,-0.92134 -4.238469,2.395787 -5.897032,0.92134 -0.368612,3.132634 5.528421,3.68574 -1.842681,2.395409 c 0,0 -1.658608,-0.552551 -3.317128,-3.31675 -1.658517,-2.764199 1.658534,-5.160148 -2.579904,-2.21167 -4.238438,2.948478 -4.422586,5.344303 -4.422586,5.344303 v 4.053971 c 0,0 -0.552936,0.553097 -2.027175,1.843045 -1.474237,1.289955 -2.395573,3.68544 -2.211293,4.42256 0.184278,0.737112 2.211293,3.132618 2.211293,3.132618 l -2.027176,2.579889 0.553106,4.422937 c 0,0 3.317084,1.105444 1.658564,2.395399 -1.658518,1.289948 -2.395838,1.105766 -2.764399,2.027161 -0.368559,0.921394 1.290167,0.184158 1.474447,1.842673 0.18428,1.658507 -0.368766,3.132992 -1.474447,3.132992 -1.105679,0 -2.395781,-3.685515 -3.68574,-0.921337 -1.289961,2.764185 -2.763909,4.422444 -3.31675,6.265232 -0.552839,1.842783 2.395677,2.395546 2.948516,3.501224 0.552839,1.10567 2.579688,1.474274 2.39541,2.94851 -0.18428,1.474239 -2.764021,0.184489 -2.764021,0.184489 l -1.105836,-3.132999 -2.948516,1.105831 c 0,0 -2.026856,4.054238 -1.105457,4.607077 0.9214,0.552838 1.105457,3.13263 1.105457,3.13263 0,0 -0.552884,-0.368679 -1.658564,1.842683 -1.105679,2.211362 -3.132536,2.395982 -1.105457,6.450137 2.027078,4.05416 -7e-6,4.422423 1.289952,4.606698 1.28996,0.184276 1.658438,-2.211167 4.791197,-2.764012 3.132758,-0.552842 3.501238,-1.4743 4.791197,-0.368616 1.289959,1.105681 -1.658564,1.105839 -1.658564,1.105839 0,0 0.184457,-0.184406 -2.764021,1.842672 -2.948477,2.027077 -2.764237,-0.737018 -2.948516,2.02718 -0.18428,2.764194 2.027175,0.736944 2.027175,4.053974 0,3.31704 -2.579926,1.65845 1.289953,3.50124 1.013679,0.48271 1.609921,0.5987 1.938135,0.5799 -0.144873,0.27385 -0.279572,0.81446 -0.279572,1.81589 0,4.05416 4.053968,10.50391 5.343927,10.31962 1.289959,-0.18428 2.948516,-2.57975 2.948516,-0.18412 0,2.39564 -1.105679,1.47412 0,3.13264 1.105678,1.65852 -0.737134,1.29 2.579904,2.94851 3.317038,1.65853 -3.317,2.58001 2.948516,4.60709 6.265517,2.02707 6.081083,1.28989 8.292443,2.21129 2.211358,0.9214 12.899914,2.02684 10.319995,3.68536 -2.57992,1.65852 3.685459,0.9215 5.712537,0.73722 2.02708,-0.18428 1.105554,2.76424 3.132634,2.94852 2.02708,0.18427 7.002713,0.36867 5.897028,-1.84268 -1.105678,-2.21136 0.552737,-3.68575 0.552737,-3.68575 0,0 0.743401,-2.01761 0.779104,-3.47332 0.104111,0.32013 0.269508,0.73108 0.51085,1.26204 1.8428,4.05415 0.552824,3.50113 2.579901,4.05397 2.027077,0.55284 -3.316885,-2.21104 2.395792,0.92171 5.712678,3.13277 -6.633924,0.737 1.105831,3.13264 7.739754,2.39563 4.791226,-1.10583 9.029665,-1.10583 4.238435,0 7.186992,-3.50125 7.186992,-4.79121 0,-1.28996 -7.002745,-7.92407 -2.02718,-4.23846 4.975554,3.68559 4.422794,2.02702 7.186984,0.92134 2.7642,-1.10568 4.42257,-1.84278 7.00248,-3.86985 2.57994,-2.02709 10.31974,-8.10816 9.7669,-9.5824 -0.55284,-1.47425 -1.65842,-3.13294 0.73723,-5.3443 2.39564,-2.21137 5.52841,-4.05392 5.52841,-6.26528 0,-2.21135 1.47396,-4.97557 2.0268,-6.818361 0.55284,-1.842802 1.29009,-2.948474 -1.84268,-2.579914 -3.13275,0.368561 -4.97538,-3.50124 -1.47406,-3.50124 3.50131,0 2.39556,-1.842823 3.50123,-5.528423 1.10569,-3.685601 -1.65861,-0.921363 -3.31713,-6.449757 -1.65851,-5.528387 -0.55288,-8.10847 -1.65856,-5.344292 -1.10567,2.764187 -0.55267,7.924121 -1.47407,2.027166 -0.9214,-5.896927 -7.18717,0.737196 -1.84306,-4.791169 5.34412,-5.528369 6.08122,-5.712975 5.15981,-7.740046 -0.9214,-2.027066 0.36874,-6.818143 -2.76402,-4.053958 -3.13276,2.764186 -9.767,1.10562 -6.63425,-0.36861 2.92065,-1.374411 6.0016,-2.108032 1.77628,-2.201091 0.17547,-0.270916 0.19797,-0.873004 0.25089,-2.037353 0.18428,-4.05413 -4.97544,-4.422777 -0.55273,-4.607055 4.42273,-0.184282 7.18694,4.422656 4.23847,-1.65855 -2.94848,-6.081197 -1.28987,-10.872405 -4.7912,-9.029613 -3.50131,1.84279 -7.00282,6.265803 -4.05434,0.921707 2.94847,-5.344099 3.68574,-4.422988 1.10583,-7.371465 -2.57992,-2.948479 1.8426,-9.029687 -2.7644,-5.159809 -4.607,3.86988 -4.60696,4.975685 -6.44976,6.265643 -1.8428,1.28996 -10.135379,1.842754 -3.86986,-1.658563 6.26552,-3.501318 7.92411,-1.34e-4 7.18699,-4.975692 -0.73712,-4.975558 -2.02712,-7.739624 -4.23847,-4.422585 -2.21136,3.317038 -2.76424,8.108242 -4.238469,3.501245 -1.474242,-4.606998 -1.105495,-4.97553 -4.053978,-5.159809 -2.948476,-0.18428 -5.528523,-3.869922 -6.265639,-1.658564 -0.737123,2.21136 -3.869921,2.211306 -2.948521,-0.368612 0.662258,-1.854316 0.467534,-3.042162 -0.515377,-3.084717 z m -21.53945,31.487005 c 0.940999,0.04074 2.509789,2.470272 4.364103,3.662328 2.579917,1.658504 0.184,1.290025 2.211081,5.344158 2.027079,4.054137 0.921394,3.685497 1.10567,6.63396 0.184282,2.948467 -1.105728,1.65849 -0.36861,3.869834 0.737119,2.211348 0.368633,-2.211352 3.132834,-2.211352 2.764201,0 2.948477,-1.105627 2.395638,-6.633994 -0.552837,-5.528362 0.552942,-4.606667 1.658619,-7.186577 0.612539,-1.429263 7.775741,-8.866569 10.013489,-2.286345 3.417252,10.048608 -8.34132,7.435744 -7.986412,11.500307 0.737116,2.764186 1.105612,2.57983 0.921334,3.501224 -0.184284,0.921395 -2.21123,5.528391 -4.422585,5.528391 -2.211361,0 -1.289902,5.159599 -0.921341,9.213744 0.368554,4.054163 -0.552853,2.764259 0.737109,6.265575 1.289961,3.501316 3.501294,4.054133 6.818332,4.791255 3.317039,0.737116 3.869841,1.842903 6.634034,2.027188 2.7642,0.184276 2.211128,1.65835 3.685363,1.474074 1.474241,-0.184284 2.948837,3.501403 3.870242,4.607075 0.921396,1.105687 -0.368784,3.869997 1.105458,6.265637 1.474236,2.39565 -5.15965,-0.36875 -5.343926,-1.47444 -0.184284,-1.10568 -5.897257,-4.23851 -6.081534,-5.897036 -0.184284,-1.658508 -5.712627,-1.842672 -7.739712,-3.132629 -2.027076,-1.28996 -7.555475,-0.552957 -10.688234,0.552734 -3.132759,1.105672 -4.238299,2.764384 -5.712539,4.05435 -1.474238,1.289961 -4.05438,4.975531 -8.292818,5.159811 -4.238436,0.18427 -3.869687,-2.02696 -5.343926,-3.13264 -1.474239,-1.10568 -1.10579,-2.211651 0.552728,-4.791574 1.658519,-2.579913 3.13268,-1.105504 4.791198,-1.474064 1.658519,-0.368561 5.160009,-3.685705 7.371367,-3.685705 2.211358,0 3.501231,-1.289955 5.896871,-2.764193 2.395641,-1.474239 1.290043,-2.395603 2.76428,-4.054118 1.474237,-1.658523 -3.685436,-6.449574 -3.501156,-9.213764 0.184282,-2.764185 -2.668065,-2.21154 -0.184316,-4.79144 1.315867,-1.36681 -1.842949,-4.054052 -0.921549,-6.265401 0.9214,-2.211349 -2.948589,-2.395859 -2.395751,-4.975759 0.270285,-1.261321 -1.105338,-3.132496 -1.105338,-3.132496 0,0 -7.002998,-2.211327 -6.45016,-5.528348 0.155487,-0.932915 7.06194,-1.835715 7.430157,-1.81977 z m 46.563924,8.453875 c 2.81003,-0.07206 4.49328,0.306321 5.5122,0.551968 -5.64965,-0.01585 -12.5387,-0.371808 -5.5122,-0.551968 z M 77.55102,99.984134 c 0.840191,-0.03911 1.398235,0.306306 1.398235,1.227696 0,2.94849 0.552729,4.9758 -0.737225,7.00287 -1.289962,2.02708 -0.552729,3.50108 -0.552729,4.97531 0,1.47425 -1.289999,-0.36842 -1.65856,3.68575 -0.368561,4.05415 -2.579978,6.63403 -0.368613,7.73971 2.211362,1.10567 2.026909,-0.18424 1.474071,2.94852 -0.376753,2.1349 -1.694583,1.44545 -1.91286,2.07282 -0.03081,-0.0849 -0.06855,-0.16204 -0.113939,-0.23015 -0.737131,-1.10567 -2.027349,-2.94829 -1.843067,-5.34392 0.184285,-2.39564 2.027292,0.55286 1.474453,-3.86986 -0.552845,-4.42272 -1.105842,-2.02716 -1.105842,-4.60708 0,-2.57991 -0.552944,-1.47437 -0.737221,-4.97569 -0.184282,-3.50133 -4.422442,-4.23846 -2.026801,-6.81837 1.647005,-1.77369 4.861675,-3.72149 6.710098,-3.807606 z"
       sodipodi:nodetypes="ssssssssssssssccccccccccssccsscccsssssssscccscssssscsssscsssssssssssccsssssssssssssssssssssssccsssssssssssssssssssssssssssssssssssssssssssssssssscssscssssssssccssssss" /><text
       xml:space="preserve"
       transform="matrix(0.19317213,0,0,0.19317213,2.8948884,-33.127852)"
       id="text2"
       style="font-size:53.3333px;line-height:0;font-family:'DejaVu Sans';-inkscape-font-specification:'DejaVu Sans';text-align:center;writing-mode:lr-tb;direction:ltr;white-space:pre;shape-inside:url(#rect2);display:inline;opacity:0.8;fill:#000000;fill-opacity:1;stroke:none;stroke-width:17.3065;stroke-dasharray:none;stroke-opacity:1"><tspan
         x="705.86589"
         y="583.37174"
         id="tspan1">L</tspan></text><text
       xml:space="preserve"
       transform="matrix(0.19317213,0,0,0.19317213,-11.013509,7.4383167)"
       id="text3"
       style="font-size:53.3333px;line-height:0;font-family:'DejaVu Sans';-inkscape-font-specification:'DejaVu Sans';text-align:center;writing-mode:lr-tb;direction:ltr;white-space:pre;shape-inside:url(#rect3);display:inline;opacity:0.8;fill:#000000;fill-opacity:1;stroke:none;stroke-width:17.3065;stroke-dasharray:none;stroke-opacity:1"><tspan
         x="70.253265"
         y="372.54556"
         id="tspan2">P</tspan></text><text
       xml:space="preserve"
       style="font-size:4.121px;line-height:0;font-family:'DejaVu Sans';-inkscape-font-specification:'DejaVu Sans';text-align:center;writing-mode:lr-tb;direction:ltr;text-anchor:middle;opacity:0.8;fill:#000000;fill-opacity:1;stroke:none;stroke-width:3.34313;stroke-dasharray:none;stroke-opacity:1"
       x="108.62468"
       y="41.87405"
       id="text5"><tspan
         sodipodi:role="line"
         id="tspan5"
         style="font-size:4.121px;fill:#ff0000;fill-opacity:1;stroke-width:3.34313"
         x="108.62468"
         y="41.87405">expresivní afázie</tspan></text><text
       xml:space="preserve"
       style="font-size:4.121px;line-height:0;font-family:'DejaVu Sans';-inkscape-font-specification:'DejaVu Sans';text-align:center;writing-mode:lr-tb;direction:ltr;text-anchor:middle;opacity:0.8;fill:#000000;fill-opacity:1;stroke:none;stroke-width:3.34313;stroke-dasharray:none;stroke-opacity:1"
       x="109.86301"
       y="48.54023"
       id="text5-2"><tspan
         sodipodi:role="line"
         id="tspan5-2"
         style="font-size:4.121px;fill:#ff0000;fill-opacity:1;stroke-width:3.34313"
         x="109.86301"
         y="48.54023">konjugované okohybné poruchy</tspan></text><text
       xml:space="preserve"
       style="font-size:4.121px;line-height:0;font-family:'DejaVu Sans';-inkscape-font-specification:'DejaVu Sans';text-align:center;writing-mode:lr-tb;direction:ltr;text-anchor:middle;opacity:0.8;fill:#000000;fill-opacity:1;stroke:none;stroke-width:3.34313;stroke-dasharray:none;stroke-opacity:1"
       x="74.315971"
       y="28.119196"
       id="text5-6"><tspan
         sodipodi:role="line"
         id="tspan5-1"
         style="font-size:4.121px;fill:#ff0000;fill-opacity:1;stroke-width:3.34313"
         x="74.315971"
         y="28.119196">dysexekuce</tspan></text><text
       xml:space="preserve"
       style="font-size:4.121px;line-height:0;font-family:'DejaVu Sans';-inkscape-font-specification:'DejaVu Sans';text-align:center;writing-mode:lr-tb;direction:ltr;text-anchor:middle;opacity:0.8;fill:#000000;fill-opacity:1;stroke:none;stroke-width:3.34313;stroke-dasharray:none;stroke-opacity:1"
       x="79.391586"
       y="34.109592"
       id="text5-6-0"><tspan
         sodipodi:role="line"
         id="tspan5-1-2"
         style="font-size:4.121px;fill:#ff0000;fill-opacity:1;stroke-width:3.34313"
         x="79.391586"
         y="34.109592">desinhibice</tspan></text><text
       xml:space="preserve"
       style="font-size:4.121px;line-height:0;font-family:'DejaVu Sans';-inkscape-font-specification:'DejaVu Sans';text-align:center;writing-mode:lr-tb;direction:ltr;text-anchor:middle;opacity:0.8;fill:#000000;fill-opacity:1;stroke:none;stroke-width:3.34313;stroke-dasharray:none;stroke-opacity:1"
       x="114.63129"
       y="79.804329"
       id="text5-9"><tspan
         sodipodi:role="line"
         id="tspan5-3"
         style="font-size:4.121px;fill:#ff0000;fill-opacity:1;stroke-width:3.34313"
         x="114.63129"
         y="79.804329">senzorická afázie</tspan></text><text
       xml:space="preserve"
       style="font-size:4.121px;line-height:0;font-family:'DejaVu Sans';-inkscape-font-specification:'DejaVu Sans';text-align:center;writing-mode:lr-tb;direction:ltr;text-anchor:middle;opacity:0.8;fill:#ff0000;fill-opacity:1;stroke:none;stroke-width:3.34313;stroke-dasharray:none;stroke-opacity:1"
       x="100.51636"
       y="54.405136"
       id="text6"><tspan
         sodipodi:role="line"
         id="tspan6"
         style="stroke-width:3.34313"
         x="100.51636"
         y="54.405136">paréza</tspan></text><text
       xml:space="preserve"
       style="font-size:4.121px;line-height:0;font-family:'DejaVu Sans';-inkscape-font-specification:'DejaVu Sans';text-align:center;writing-mode:lr-tb;direction:ltr;text-anchor:middle;opacity:0.8;fill:#ff0000;fill-opacity:1;stroke:none;stroke-width:3.34313;stroke-dasharray:none;stroke-opacity:1"
       x="99.226402"
       y="63.987698"
       id="text7"><tspan
         sodipodi:role="line"
         id="tspan7"
         style="stroke-width:3.34313"
         x="99.226402"
         y="63.987698">hemihyparéza</tspan></text><text
       xml:space="preserve"
       style="font-size:4.121px;line-height:0;font-family:'DejaVu Sans';-inkscape-font-specification:'DejaVu Sans';text-align:center;writing-mode:lr-tb;direction:ltr;text-anchor:middle;opacity:0.8;fill:#ff0000;fill-opacity:1;stroke:none;stroke-width:3.34313;stroke-dasharray:none;stroke-opacity:1"
       x="113.60023"
       y="87.944443"
       id="text8"><tspan
         sodipodi:role="line"
         id="tspan8"
         style="stroke-width:3.34313"
         x="113.60023"
         y="87.944443">dyskalkulie</tspan></text><text
       xml:space="preserve"
       style="font-size:4.121px;line-height:0;font-family:'DejaVu Sans';-inkscape-font-specification:'DejaVu Sans';text-align:center;writing-mode:lr-tb;direction:ltr;text-anchor:middle;opacity:0.8;fill:#ff0000;fill-opacity:1;stroke:none;stroke-width:3.34313;stroke-dasharray:none;stroke-opacity:1"
       x="112.49455"
       y="92.551506"
       id="text9"><tspan
         sodipodi:role="line"
         id="tspan9"
         style="stroke-width:3.34313"
         x="112.49455"
         y="92.551506">pravolevá orientace</tspan></text><text
       xml:space="preserve"
       style="font-size:4.121px;line-height:0;font-family:'DejaVu Sans';-inkscape-font-specification:'DejaVu Sans';text-align:center;writing-mode:lr-tb;direction:ltr;text-anchor:middle;opacity:0.8;fill:#ff0000;fill-opacity:1;stroke:none;stroke-width:3.34313;stroke-dasharray:none;stroke-opacity:1"
       x="112.12598"
       y="83.890236"
       id="text10"><tspan
         sodipodi:role="line"
         id="tspan10"
         style="stroke-width:3.34313"
         x="112.12598"
         y="83.890236">finger agnózie</tspan></text><text
       xml:space="preserve"
       style="font-size:4.121px;line-height:0;font-family:'DejaVu Sans';-inkscape-font-specification:'DejaVu Sans';text-align:center;writing-mode:lr-tb;direction:ltr;text-anchor:middle;opacity:0.8;fill:#ff0000;fill-opacity:1;stroke:none;stroke-width:3.34313;stroke-dasharray:none;stroke-opacity:1"
       x="111.20459"
       y="75.044678"
       id="text11"><tspan
         sodipodi:role="line"
         id="tspan11"
         style="stroke-width:3.34313"
         x="111.20459"
         y="75.044678">surditas</tspan></text><text
       xml:space="preserve"
       style="font-size:4.121px;line-height:0;font-family:'DejaVu Sans';-inkscape-font-specification:'DejaVu Sans';text-align:center;writing-mode:lr-tb;direction:ltr;text-anchor:middle;opacity:0.8;fill:#ff0000;fill-opacity:1;stroke:none;stroke-width:3.34313;stroke-dasharray:none;stroke-opacity:1"
       x="29.199991"
       y="91.814377"
       id="text12"><tspan
         sodipodi:role="line"
         id="tspan12"
         style="stroke-width:3.34313"
         x="29.199991"
         y="91.814377">neglect</tspan></text><text
       xml:space="preserve"
       style="font-size:4.121px;line-height:0;font-family:'DejaVu Sans';-inkscape-font-specification:'DejaVu Sans';text-align:center;writing-mode:lr-tb;direction:ltr;text-anchor:middle;opacity:0.8;fill:#ff0000;fill-opacity:1;stroke:none;stroke-width:3.34313;stroke-dasharray:none;stroke-opacity:1"
       x="73.795731"
       y="128.67043"
       id="text13"><tspan
         sodipodi:role="line"
         id="tspan13"
         style="stroke-width:3.34313"
         x="73.795731"
         y="128.67043">hemianopsie</tspan></text><g
       id="g33"
       transform="matrix(0.65908187,0,0,0.67064174,15.477,-15.666839)"><path
         style="opacity:0.8;fill:#ffcece;fill-opacity:1;stroke:#717171;stroke-width:4.57901;stroke-dasharray:none;stroke-opacity:1"
         d="m 352.35575,141.85096 18.1731,-2.52404 c 0,0 10.60095,-1.00961 11.10575,4.03846 0.50482,5.04808 9.08656,7.06731 9.08656,7.06731 0,0 8.07691,8.58173 10.60095,10.09615 2.52405,1.51443 8.58174,0.50481 8.58174,0.50481 0,0 15.64904,-2.01923 13.62979,-10.60096 -2.01922,-8.58173 3.02885,-16.65865 -3.53364,-22.21154 -6.56251,-5.55288 2.52405,-12.11538 -7.57211,-17.66827 C 402.33174,105 401.82691,99.951922 395.76922,95.91346 389.71153,91.875 387.69231,91.875 379.11058,87.836538 c -8.58173,-4.038462 -16.65867,-8.581731 -20.19231,-8.581731 -3.53365,0 -7.57211,-7.067307 -15.64905,-6.5625 -8.07691,0.504809 -7.06731,2.019231 -16.15384,0.504809 -9.08653,-1.514425 -6.05769,-1.514425 -16.65865,-0.504809 -10.60098,1.009615 -16.15384,0 -24.73557,1.514422 -8.58174,1.514424 -21.70674,6.5625 -25.24039,7.572115 -3.53366,1.009616 -6.5625,0 -16.65866,6.057694 -10.09615,6.057691 -14.63942,8.581731 -17.16346,11.610575 -2.52404,3.028847 -6.05769,3.533657 -7.57211,8.581727 -1.51443,5.04808 -5.55289,10.60097 -8.07693,15.64904 -2.52403,5.04808 0,11.61058 2.01923,14.63943 2.01923,3.02884 14.13462,8.07692 18.17308,8.58173 4.03846,0.5048 21.20192,7.57211 25.74519,7.57211 4.54327,0 4.03846,-3.02884 4.54327,4.03846 0.50481,7.06731 6.56251,10.60097 11.61058,11.10577 5.04809,0.50481 16.65866,1.00962 20.19231,3.02885 3.53364,2.01923 8.07691,2.52404 11.10578,2.52404 3.02884,0 7.06728,0 9.08653,5.04807 2.01922,5.04808 2.52404,-0.5048 6.56249,5.55289 4.03846,6.05769 3.53366,2.01923 10.09615,12.62019 6.56251,10.60096 10.60096,14.13462 12.6202,15.14423 2.01922,1.00962 14.63943,1.51442 16.65865,1.51442 2.01924,0 1.51442,-10.09615 -2.01922,-11.10577 -3.53367,-1.00961 0,-3.53365 -3.53367,-7.0673 -3.53365,-3.53366 -3.53365,-11.10577 -4.03845,-15.14423 -0.50482,-4.03846 -4.03846,-13.125 -0.50482,-15.14423 3.53367,-2.01923 2.52405,-3.02885 -1.51442,-6.5625 -4.03844,-3.53366 -4.03844,-0.50481 -4.03844,-6.5625 0,-6.0577 8.5817,-11.61058 8.5817,-11.61058 z"
         id="path13" /><path
         style="opacity:0.8;fill:#ffcece;fill-opacity:1;stroke:#717171;stroke-width:4.57901;stroke-dasharray:none;stroke-opacity:1"
         d="m 405.36058,167.59616 c -2.01925,4.03846 -3.02884,9.59134 -5.55289,15.14422 -2.52405,5.55289 -11.10578,5.55289 -16.15384,10.09616 -5.0481,4.54326 -12.11538,5.04807 -19.68752,5.04807 -7.57211,0 -11.10575,0 -12.11537,-3.53365 -1.00963,-3.53366 -6.05769,-5.55288 -7.57211,-19.18269 -1.51443,-13.62981 2.52404,-6.05769 1.51442,-13.62981 -1.00963,-7.57212 -8.58174,-8.58173 -2.52405,-12.62019 6.05769,-4.03846 7.57213,-7.57212 17.66829,-11.10577 10.09616,-3.53366 12.65951,-0.57871 18.17307,2.01923 6.99705,3.29695 13.125,11.61058 16.65864,16.15385 3.53367,4.54326 11.2435,8.30633 9.59136,11.61058 z"
         id="path14"
         sodipodi:nodetypes="sssssssssass" /><path
         style="opacity:0.8;fill:#ffcece;fill-opacity:1;stroke:#717171;stroke-width:4.57901;stroke-dasharray:none;stroke-opacity:1"
         d="m 311.97116,174.66346 -2.52405,-14.63942 12.11538,-7.57212 -3.53364,-8.58173 c 0,0 -7.06732,-8.07692 1.00962,-6.05769 8.07691,2.01923 16.65864,2.01923 18.17306,5.55288 1.51443,3.53366 4.54327,12.6202 4.54327,12.6202 l 4.03847,6.05769 -1.51442,19.18269 c 0,0 5.04806,7.57212 5.04806,9.59134 0,2.01924 10.60098,16.65866 10.60098,16.65866 l 1.0096,7.57211 -19.18269,-0.5048 -24.23075,-31.80289 z"
         id="path15" /><path
         style="opacity:0.8;fill:#ffcece;fill-opacity:1;stroke:#717171;stroke-width:4.57901;stroke-dasharray:none;stroke-opacity:1"
         d="m 288.2452,132.25961 c 0,0 -19.18271,4.03847 -21.20193,2.01923 -2.01922,-2.01923 -12.11539,-7.0673 -9.08654,-11.10576 3.02884,-4.03847 8.58174,-7.06731 14.1346,-11.10577 5.55289,-4.03847 24.23078,-8.58173 31.80289,-6.0577 7.57211,2.52404 12.6202,1.00962 20.69711,3.53366 8.07694,2.52404 24.73558,4.03846 27.25963,8.07692 2.52404,4.03846 6.05768,0.50481 6.05768,6.05769 0,5.55289 6.56252,11.10577 -0.50479,10.60096 -7.06732,-0.5048 -9.08654,2.01924 -11.61058,0 -2.52405,-2.01923 1.00962,-8.58173 -3.53365,-9.59134 -4.54329,-1.00962 -4.54329,-1.51442 -14.13462,-3.53366 -9.59136,-2.01923 -17.16347,5.04808 -25.24038,5.04808 -8.07693,0 -14.63942,6.05769 -14.63942,6.05769 z"
         id="path16" /><path
         style="opacity:0.8;fill:none;fill-opacity:1;stroke:#717171;stroke-width:0.579;stroke-dasharray:none;stroke-opacity:1"
         d="m 275.1202,140.84134 -21.20193,-2.01923 c 0,0 -4.03847,-3.53365 -6.5625,-10.60096 -2.52404,-7.06731 -6.5625,-10.09615 -1.00962,-15.64904 5.55289,-5.55288 16.15385,-17.668266 25.74518,-16.153841 9.59136,1.514422 23.22116,-5.048078 35.33656,-2.52404 12.11538,2.52404 16.15384,6.562501 26.25,8.581731 10.09616,2.01923 17.16344,5.55288 22.21153,2.01923 5.04807,-3.53365 14.13463,-7.067305 14.13463,0 0,7.06731 0,7.57212 2.01922,15.64904 2.01922,8.07692 6.05769,5.55288 2.52404,8.58173 -3.53367,3.02885 -3.53367,3.02885 -3.53367,3.02885"
         id="path17" /><path
         style="opacity:0.8;fill:none;fill-opacity:1;stroke:#717171;stroke-width:0.579001;stroke-dasharray:none;stroke-opacity:1"
         d="m 365.69829,169.19569 c 0,0 0.17847,9.63773 1.60629,10.17316 1.4278,0.53543 4.28342,0.89238 4.99734,0.53543 0.7139,-0.35695 1.07085,-1.07086 0.17847,-3.0341 -0.89239,-1.96324 1.24933,0.71391 2.32021,0.35696 1.07084,-0.35696 7.13904,4.4619 6.24665,0.53542 -0.89236,-3.92648 -4.10496,-1.78476 -4.10496,-6.0682 0,-4.28343 5.17583,3.56953 5.53278,4.64039 0.35695,1.07086 4.6404,0.17848 3.56952,-2.14172 -1.07084,-2.32019 -1.42779,-2.49867 0.35695,-3.03409 1.78478,-0.53543 8.20994,-1.42782 3.03411,-2.85563 -5.1758,-1.42781 -6.60363,-2.14172 -7.85296,-3.21258 -1.24934,-1.07085 4.64039,1.42782 6.60363,0.35696 1.96323,-1.07086 4.64039,0 2.14172,-2.3202 -2.49867,-2.32019 1.24934,-1.60629 -3.74801,-0.89238 -4.99734,0.71391 3.03411,0.35695 3.56952,-1.78476 0.53544,-2.14172 5.71127,-2.85563 0.53544,-3.21258 -5.17581,-0.35695 -4.99735,1.24934 -6.96058,1.42781 -1.96324,0.17848 4.10496,-1.24933 3.39106,-3.39105 -0.71393,-2.14172 2.85562,-5.17582 -2.49867,-2.85562 -5.3543,2.32019 -8.38841,2.85562 -11.06554,3.92648 -2.67716,1.07086 11.95792,-3.92648 9.63771,-5.3543 -2.32018,-1.42781 -3.74801,-4.64038 -7.13904,-1.96324 -3.39106,2.67715 1.60629,-1.96324 -1.07087,-3.748 -2.67714,-1.78477 -2.67714,-2.49868 -2.49867,-0.53543 0.17848,1.96324 1.60628,1.96324 -1.60629,-0.35696 -3.21257,-2.32019 -4.81886,-7.13905 -5.71124,-1.42781 -0.89239,5.71125 1.07085,5.88972 1.07085,5.88972 0,0 -0.17847,-8.74534 -3.56952,-6.7821 -3.39106,1.96324 -8.20992,0.53543 -4.99735,5.88972 3.21257,5.3543 2.32021,6.78211 2.32021,6.78211 0,0 -2.85565,-13.02878 -6.24668,-8.92382 -3.39106,4.10495 -6.96058,3.39105 -2.67716,6.7821 4.28345,3.39105 6.06819,3.74801 6.06819,3.74801 0,0 -11.24399,-10.35164 -9.63771,-4.81887 1.60629,5.53277 3.92647,6.78211 4.81886,8.3884 0.89238,1.60628 8.20991,3.92648 8.20991,3.92648 0,0 -0.35695,-1.07086 -2.85562,0.89238 -2.49867,1.96324 -7.67448,1.78477 -7.67448,4.81887 0,3.0341 -2.85562,8.56687 1.60629,3.92648 4.46191,-4.64039 10.35164,-5.88973 6.78209,-4.10496 -3.56952,1.78477 -11.42249,9.45925 -5.35429,9.81621 6.06822,0.35695 9.1023,-11.06555 7.49601,-7.31754 -1.60628,3.74801 5.71125,8.56687 5.17583,9.45925 -0.53543,0.89239 0,-12.1364 0,-12.1364 z"
         id="path18" /><path
         style="opacity:0.8;fill:none;fill-opacity:1;stroke:#717171;stroke-width:0.579001;stroke-dasharray:none;stroke-opacity:1"
         d="m 230.77008,126.71829 c 0,0 -10.17316,1.96324 -9.28078,-2.14171 0.89238,-4.10496 4.10496,-5.88973 0.35695,-6.42516 -3.748,-0.53543 -6.42515,-1.24933 -6.42515,-1.24933 v 0.17847 0"
         id="path19" /><path
         style="opacity:0.8;fill:none;fill-opacity:1;stroke:#717171;stroke-width:0.579001;stroke-dasharray:none;stroke-opacity:1"
         d="m 223.98797,118.68685 c 3.92648,-2.67715 1.96324,-4.28343 3.92648,-2.67715 1.96324,1.60629 1.96324,1.60629 1.96324,1.60629"
         id="path20" /><path
         style="opacity:0.8;fill:none;fill-opacity:1;stroke:#717171;stroke-width:0.579001;stroke-dasharray:none;stroke-opacity:1"
         d="m 225.95121,103.51635 c 0.17848,4.46191 -4.81886,5.53277 0.17848,4.46191 4.99734,-1.07085 6.60363,0.53543 6.60363,0.53543"
         id="path21" /><path
         style="opacity:0.8;fill:none;fill-opacity:1;stroke:#717171;stroke-width:0.579001;stroke-dasharray:none;stroke-opacity:1"
         d="m 225.2373,108.15674 c -1.42781,3.56953 -1.42781,3.56953 -1.42781,3.56953"
         id="path22" /><path
         style="opacity:0.8;fill:none;fill-opacity:1;stroke:#717171;stroke-width:0.579001;stroke-dasharray:none;stroke-opacity:1"
         d="m 238.97999,104.76569 c -2.67714,5.17581 -4.28343,7.31753 -2.67714,5.17581 1.60628,-2.14171 5.35429,-4.28343 5.88972,-3.39105 0.53543,0.89238 0.53543,0.89238 0.53543,0.89238"
         id="path23" /><path
         style="opacity:0.8;fill:none;fill-opacity:1;stroke:#717171;stroke-width:0.579001;stroke-dasharray:none;stroke-opacity:1"
         d="m 260.9326,96.020341 c 5.71125,-3.926483 3.56953,-4.818864 5.71125,-3.926483 2.14172,0.892382 -7.49602,2.320195 -0.89238,-2.498669 6.60362,-4.818867 6.24668,-5.889726 8.03142,-6.960584 1.78478,-1.070859 -1.24933,3.034101 -3.03408,0.356954 -1.78477,-2.677149 -1.78477,-5.53277 -1.78477,-5.53277"
         id="path24" /><path
         style="opacity:0.8;fill:none;fill-opacity:1;stroke:#717171;stroke-width:0.579001;stroke-dasharray:none;stroke-opacity:1"
         d="m 231.48398,97.0912 c 7.49601,-1.784766 8.92382,-5.889723 11.95792,-4.461912 3.0341,1.42781 3.0341,1.42781 3.0341,1.42781"
         id="path25" /><path
         style="opacity:0.8;fill:none;fill-opacity:1;stroke:#717171;stroke-width:0.579001;stroke-dasharray:none;stroke-opacity:1"
         d="m 277.5309,89.238234 c 2.49867,6.246678 5.35429,-0.178474 2.49867,6.246678 -2.85562,6.425148 3.56955,-8.566872 3.56955,-8.566872"
         id="path26" /><path
         style="opacity:0.8;fill:none;fill-opacity:1;stroke:#717171;stroke-width:0.579001;stroke-dasharray:none;stroke-opacity:1"
         d="m 296.98484,76.030975 c 0.89239,4.64039 -0.35695,1.427814 1.07087,4.818864 1.4278,3.391054 1.24934,3.748008 1.24934,3.748008 h -0.35698"
         id="path27" /><path
         style="opacity:0.8;fill:none;fill-opacity:1;stroke:#717171;stroke-width:0.579001;stroke-dasharray:none;stroke-opacity:1"
         d="m 303.05306,79.243551 c 11.244,2.67715 8.38837,4.818867 11.244,2.67715 2.85562,-2.14172 6.96057,-1.070862 6.96057,-1.070862 l 0.17849,0.178478 v 0"
         id="path28" /><path
         style="opacity:0.8;fill:none;fill-opacity:1;stroke:#717171;stroke-width:0.579001;stroke-dasharray:none;stroke-opacity:1"
         d="m 324.47023,88.881282 c 14.09962,-1.427813 15.52745,-3.391053 15.88439,-0.535429 0.35695,2.855624 -11.24402,1.96324 -1.24933,-0.713907 9.99469,-2.677147 4.81885,-1.606288 4.81885,-1.606288"
         id="path29" /><path
         style="opacity:0.8;fill:none;fill-opacity:1;stroke:#717171;stroke-width:0.579001;stroke-dasharray:none;stroke-opacity:1"
         d="m 419.06274,137.96231 c -4.46191,-0.89238 -3.03408,-3.92648 -4.64037,-0.7139 -1.60631,3.21257 -4.28344,-3.03411 -1.96326,-5.71125 2.32021,-2.67715 -0.53541,1.96324 -6.60363,0.35695 -6.06819,-1.60629 -18.38306,-8.74535 -19.45394,-7.13906 -1.07084,1.60629 2.67716,-0.89238 1.24934,-2.49867 -1.4278,-1.60629 -1.4278,-1.60629 -1.4278,-1.60629"
         id="path30" /><path
         style="opacity:0.8;fill:none;fill-opacity:1;stroke:#717171;stroke-width:0.579001;stroke-dasharray:none;stroke-opacity:1"
         d="m 376.76383,135.46364 c 0,0 12.13639,-10.70859 15.17049,-4.10496 3.03411,6.60363 0.53544,9.63773 0.53544,9.63773 v 0 c 0,0 -0.89238,-8.03144 2.49867,-6.42515 3.39106,1.60629 19.27546,10.17316 17.66917,11.42249 -1.60629,1.24934 -7.13907,1.96324 -7.13907,1.96324 l -4.99734,-3.0341 7.49602,6.0682 c 0,0 2.14172,-6.24667 6.42516,-4.64038 4.28342,1.60628 4.28342,1.60628 4.28342,1.60628"
         id="path31" /><path
         style="opacity:0.8;fill:none;fill-opacity:1;stroke:#717171;stroke-width:0.579001;stroke-dasharray:none;stroke-opacity:1"
         d="m 380.15489,88.881282 c 0,0 -6.78212,14.635068 -8.56689,12.136398 -1.78475,-2.498669 0.89239,4.46191 2.14172,4.10496 1.24934,-0.35695 1.78477,-3.92648 2.49867,-1.60629 0.7139,2.3202 0.7139,2.3202 0.7139,2.3202"
         id="path32" /><path
         style="opacity:0.8;fill:none;fill-opacity:1;stroke:#717171;stroke-width:0.579001;stroke-dasharray:none;stroke-opacity:1"
         d="m 304.48086,158.48711 c 0,0 -18.20461,10.88706 -18.20461,8.74534 0,-2.14172 6.06819,2.67715 0.53544,3.21258 -5.53278,0.53543 -13.0288,1.42781 -14.63508,-1.24934 -1.60629,-2.67714 -8.92382,0.35696 -4.28342,-6.0682 4.64037,-6.42515 4.64037,-6.42515 4.64037,-6.42515"
         id="path33" /></g><text
       xml:space="preserve"
       style="font-size:9.75603px;line-height:0;font-family:'DejaVu Sans';-inkscape-font-specification:'DejaVu Sans';text-align:center;writing-mode:lr-tb;direction:ltr;text-anchor:middle;opacity:0.8;fill:none;fill-opacity:1;stroke:#717171;stroke-width:1.45565;stroke-dasharray:none;stroke-opacity:1"
       x="252.35252"
       y="-93.988258"
       id="text33"
       transform="matrix(0.64695174,0.77061307,-0.59944701,0.83168228,0,0)"><tspan
         sodipodi:role="line"
         id="tspan33"
         style="font-size:9.75603px;fill:#ff0000;stroke:none;stroke-width:1.45565"
         x="252.35252"
         y="-93.988258">vědomí</tspan></text><text
       xml:space="preserve"
       style="font-size:3.88056px;line-height:0;font-family:'DejaVu Sans';-inkscape-font-specification:'DejaVu Sans';text-align:center;writing-mode:lr-tb;direction:ltr;text-anchor:middle;opacity:0.8;fill:#ff0000;fill-opacity:1;stroke:none;stroke-width:0.579001;stroke-dasharray:none;stroke-opacity:1"
       x="224.63942"
       y="95.408653"
       id="text34"><tspan
         sodipodi:role="line"
         id="tspan34"
         style="stroke-width:0.579"
         x="224.63942"
         y="95.408653">oční pohyby</tspan></text><text
       xml:space="preserve"
       style="font-size:3.88056px;line-height:0;font-family:'DejaVu Sans';-inkscape-font-specification:'DejaVu Sans';text-align:center;writing-mode:lr-tb;direction:ltr;text-anchor:middle;opacity:0.8;fill:#ff0000;fill-opacity:1;stroke:none;stroke-width:0.579001;stroke-dasharray:none;stroke-opacity:1"
       x="237.0072"
       y="117.87259"
       id="text35"><tspan
         sodipodi:role="line"
         id="tspan35"
         style="stroke-width:0.579"
         x="237.0072"
         y="117.87259">respirace</tspan></text><text
       xml:space="preserve"
       style="font-size:3.88056px;line-height:0;font-family:'DejaVu Sans';-inkscape-font-specification:'DejaVu Sans';text-align:center;writing-mode:lr-tb;direction:ltr;text-anchor:middle;opacity:0.8;fill:#ff0000;fill-opacity:1;stroke:none;stroke-width:0.579001;stroke-dasharray:none;stroke-opacity:1"
       x="232.96875"
       y="111.05769"
       id="text36"><tspan
         sodipodi:role="line"
         id="tspan36"
         style="stroke-width:0.579"
         x="232.96875"
         y="111.05769">dysfagie</tspan></text><text
       xml:space="preserve"
       style="font-size:3.88056px;line-height:0;font-family:'DejaVu Sans';-inkscape-font-specification:'DejaVu Sans';text-align:center;writing-mode:lr-tb;direction:ltr;text-anchor:middle;opacity:0.8;fill:#ff0000;fill-opacity:1;stroke:none;stroke-width:0.579001;stroke-dasharray:none;stroke-opacity:1"
       x="256.94711"
       y="95.15625"
       id="text37"><tspan
         sodipodi:role="line"
         id="tspan37"
         style="stroke-width:0.579"
         x="256.94711"
         y="95.15625">ataxie</tspan></text><text
       xml:space="preserve"
       style="font-size:3.88056px;line-height:0;font-family:'DejaVu Sans';-inkscape-font-specification:'DejaVu Sans';text-align:center;writing-mode:lr-tb;direction:ltr;text-anchor:middle;opacity:0.8;fill:#ff0000;fill-opacity:1;stroke:none;stroke-width:0.579001;stroke-dasharray:none;stroke-opacity:1"
       x="194.60336"
       y="55.781246"
       id="text38"><tspan
         sodipodi:role="line"
         id="tspan38"
         style="stroke-width:0.579"
         x="194.60336"
         y="55.781246">emoce</tspan></text><text
       xml:space="preserve"
       style="font-size:3.88056px;line-height:0;font-family:'DejaVu Sans';-inkscape-font-specification:'DejaVu Sans';text-align:center;writing-mode:lr-tb;direction:ltr;text-anchor:middle;opacity:0.8;fill:#ff0000;fill-opacity:1;stroke:none;stroke-width:0.579001;stroke-dasharray:none;stroke-opacity:1"
       x="205.70914"
       y="82.03125"
       id="text39"><tspan
         sodipodi:role="line"
         id="tspan39"
         style="stroke-width:0.579"
         x="205.70914"
         y="82.03125">vybavení paměti</tspan></text><text
       xml:space="preserve"
       style="font-size:3.88056px;line-height:0;font-family:'DejaVu Sans';-inkscape-font-specification:'DejaVu Sans';text-align:center;writing-mode:lr-tb;direction:ltr;text-anchor:middle;opacity:0.8;fill:#ff0000;fill-opacity:1;stroke:none;stroke-width:0.579001;stroke-dasharray:none;stroke-opacity:1"
       x="168.45735"
       y="78.065865"
       id="text40"><tspan
         sodipodi:role="line"
         id="tspan40"
         style="stroke-width:0.579"
         x="168.45735"
         y="78.065865">sociální chování</tspan></text><text
       xml:space="preserve"
       style="font-size:3.88056px;line-height:0;font-family:'DejaVu Sans';-inkscape-font-specification:'DejaVu Sans';text-align:center;writing-mode:lr-tb;direction:ltr;text-anchor:middle;opacity:0.8;fill:#ff0000;fill-opacity:1;stroke:none;stroke-width:0.579001;stroke-dasharray:none;stroke-opacity:1"
       x="162.80048"
       y="56.53846"
       id="text41"><tspan
         sodipodi:role="line"
         id="tspan41"
         style="stroke-width:0.579"
         x="162.80048"
         y="56.53846">exekuce</tspan></text><text
       xml:space="preserve"
       style="font-size:3.88056px;line-height:0;font-family:'DejaVu Sans';-inkscape-font-specification:'DejaVu Sans';text-align:center;writing-mode:lr-tb;direction:ltr;text-anchor:middle;opacity:0.8;fill:#ff0000;fill-opacity:1;stroke:none;stroke-width:0.579001;stroke-dasharray:none;stroke-opacity:1"
       x="218.58173"
       y="86.826927"
       id="text42"><tspan
         sodipodi:role="line"
         id="tspan42"
         style="stroke-width:0.579"
         x="218.58173"
         y="86.826927">řízení pohybu</tspan></text><text
       xml:space="preserve"
       style="font-size:3.88056px;line-height:0;font-family:'DejaVu Sans';-inkscape-font-specification:'DejaVu Sans';text-align:center;writing-mode:lr-tb;direction:ltr;text-anchor:middle;opacity:0.8;fill:#ff0000;fill-opacity:1;stroke:none;stroke-width:0.579001;stroke-dasharray:none;stroke-opacity:1"
       x="244.6945"
       y="106.21329"
       id="text43"><tspan
         sodipodi:role="line"
         id="tspan43"
         style="stroke-width:0.579"
         x="244.6945"
         y="106.21329">stoj a rovnováha</tspan></text><text
       xml:space="preserve"
       style="font-size:3.88056px;line-height:0;font-family:'DejaVu Sans';-inkscape-font-specification:'DejaVu Sans';text-align:center;writing-mode:lr-tb;direction:ltr;text-anchor:middle;opacity:0.8;fill:#ff0000;fill-opacity:1;stroke:none;stroke-width:0.579001;stroke-dasharray:none;stroke-opacity:1"
       x="208.48558"
       y="38.870193"
       id="text44"><tspan
         sodipodi:role="line"
         id="tspan44"
         style="stroke-width:0.579"
         x="208.48558"
         y="38.870193">hemiparéza</tspan></text><text
       xml:space="preserve"
       style="font-size:3.88056px;line-height:0;font-family:'DejaVu Sans';-inkscape-font-specification:'DejaVu Sans';text-align:center;writing-mode:lr-tb;direction:ltr;text-anchor:middle;opacity:0.8;fill:#ff0000;fill-opacity:1;stroke:none;stroke-width:0.579001;stroke-dasharray:none;stroke-opacity:1"
       x="227.41586"
       y="46.69471"
       id="text45"><tspan
         sodipodi:role="line"
         id="tspan45"
         style="stroke-width:0.579"
         x="227.41586"
         y="46.69471">hemihypesteze</tspan></text><text
       xml:space="preserve"
       style="font-size:3.88056px;line-height:0;font-family:'DejaVu Sans';-inkscape-font-specification:'DejaVu Sans';text-align:center;writing-mode:lr-tb;direction:ltr;text-anchor:middle;opacity:0.8;fill:#ff0000;fill-opacity:1;stroke:none;stroke-width:0.579001;stroke-dasharray:none;stroke-opacity:1"
       x="244.83173"
       y="51.23798"
       id="text46"><tspan
         sodipodi:role="line"
         id="tspan46"
         style="stroke-width:0.579"
         x="244.83173"
         y="51.23798">uvědomění těla</tspan></text><text
       xml:space="preserve"
       style="font-size:3.88056px;line-height:0;font-family:'DejaVu Sans';-inkscape-font-specification:'DejaVu Sans';text-align:center;writing-mode:lr-tb;direction:ltr;text-anchor:middle;opacity:0.8;fill:#ff0000;fill-opacity:1;stroke:none;stroke-width:0.579001;stroke-dasharray:none;stroke-opacity:1"
       x="269.8197"
       y="67.644234"
       id="text47"><tspan
         sodipodi:role="line"
         id="tspan47"
         style="stroke-width:0.579"
         x="269.8197"
         y="67.644234">hemianopsie</tspan></text><text
       xml:space="preserve"
       style="font-size:3.88056px;line-height:0;font-family:'DejaVu Sans';-inkscape-font-specification:'DejaVu Sans';text-align:center;writing-mode:lr-tb;direction:ltr;text-anchor:middle;opacity:0.8;fill:#ff0000;fill-opacity:1;stroke:none;stroke-width:0.579001;stroke-dasharray:none;stroke-opacity:1"
       x="90.865379"
       y="70.168266"
       id="text48"><tspan
         sodipodi:role="line"
         id="tspan48"
         style="stroke-width:0.579"
         x="90.865379"
         y="70.168266">faciální paréza</tspan></text></g></svg>
