<?xml version="1.0" encoding="UTF-8" standalone="no"?>
<!-- Created with Inkscape (http://www.inkscape.org/) -->

<svg
   width="297mm"
   height="210mm"
   viewBox="0 0 297 210"
   version="1.1"
   id="svg1"
   xml:space="preserve"
   inkscape:version="1.4.4 (dcaf3e7d9e, 2026-05-05)"
   sodipodi:docname="Trajektorie_ALS.svg"
   xmlns:inkscape="http://www.inkscape.org/namespaces/inkscape"
   xmlns:sodipodi="http://sodipodi.sourceforge.net/DTD/sodipodi-0.dtd"
   xmlns="http://www.w3.org/2000/svg"
   xmlns:svg="http://www.w3.org/2000/svg"><sodipodi:namedview
     id="namedview1"
     pagecolor="#ffffff"
     bordercolor="#000000"
     borderopacity="0.25"
     inkscape:showpageshadow="2"
     inkscape:pageopacity="0.0"
     inkscape:pagecheckerboard="0"
     inkscape:deskcolor="#d1d1d1"
     inkscape:document-units="mm"
     inkscape:zoom="0.79642256"
     inkscape:cx="397.4021"
     inkscape:cy="410.58606"
     inkscape:window-width="1876"
     inkscape:window-height="1006"
     inkscape:window-x="0"
     inkscape:window-y="0"
     inkscape:window-maximized="1"
     inkscape:current-layer="layer1-3" /><defs
     id="defs1" /><g
     inkscape:label="Layer 1"
     inkscape:groupmode="layer"
     id="layer1"><g
       inkscape:label="Layer 1"
       id="layer1-3"
       transform="translate(-4.2880791,-81.398609)"><path
         style="fill:none;stroke:#000000;stroke-width:1.10875;stroke-miterlimit:4;stroke-dasharray:none"
         d="M 291.88912,260.64199 H 24.22891 V 92.874936"
         id="rect10"
         inkscape:connector-curvature="0"
         sodipodi:nodetypes="ccc" /><path
         style="fill:none;stroke:#ff0000;stroke-width:1;stroke-miterlimit:4;stroke-dasharray:none"
         d="m 35.939085,179.2033 c 10.211362,10.27664 0.0168,2.65086 23.164051,7.85896 3.412648,-1.69654 2.473161,12.24199 10.11558,10.35841 4.404255,-1.08548 -0.09066,1.48254 10.272383,1.31582 6.043191,-0.0972 1.319094,1.58686 9.826744,3.75003 9.789253,2.48903 -4.277101,3.92239 10.146138,8.45981 8.451059,2.65862 -1.793274,7.53968 3.388059,7.42702 2.30263,-0.0501 9.40808,1.21522 13.41395,1.65304 2.77898,0.30373 -3.26919,3.14587 0.20487,10.46574 1.59704,3.36495 6.28026,10.23901 13.82781,9.88549 4.73451,-0.22176 5.88362,8.9196 12.02324,8.17501 9.75835,-1.18344 7.34662,4.7456 10.35574,10.27119"
         id="rect12"
         inkscape:connector-curvature="0"
         sodipodi:nodetypes="cssssssssssc" /><path
         style="fill:none;stroke:#ff6600;stroke-width:1;stroke-miterlimit:4;stroke-dasharray:none"
         d="m 33.427895,179.17461 c 13.739851,3.52422 5.0886,7.13691 10.494486,6.89386 6.190949,0.0768 -0.657379,-1.51907 9.049047,-2.13261 5.583847,-0.35295 6.023223,8.02921 10.597028,5.75543 3.412648,-1.69654 2.805376,11.24534 10.447795,9.36176 4.404255,-1.08548 6.885853,1.15032 17.248893,0.9836 0.535026,-1.09956 7.162665,8.26765 19.042146,8.00935 2.30263,-0.0501 5.75372,1.21522 9.75959,1.65304 2.77898,0.30373 9.35312,11.72627 15.15454,14.45231 2.59337,1.21861 16.2467,7.91352 23.79425,7.56 4.73451,-0.22176 16.13626,7.51535 18.66754,13.15822 2.44962,5.46086 10.00433,6.7389 9.02688,14.25777"
         id="rect12-5"
         inkscape:connector-curvature="0"
         sodipodi:nodetypes="ccsssssssssc" /><path
         style="fill:none;stroke:#800080;stroke-width:1;stroke-miterlimit:4;stroke-dasharray:none"
         d="m 35.448072,177.01181 c 13.739851,3.52422 5.0886,7.13691 10.494486,6.89386 6.190949,0.0768 -0.657379,-1.51907 9.049047,-2.13261 5.583847,-0.35295 6.023223,8.02921 10.597028,5.75543 3.412648,-1.69654 2.805376,11.24534 10.447795,9.36176 4.404255,-1.08548 3.89592,-0.84296 14.25896,-1.00968 10.311032,7.39241 20.307592,9.34289 31.459452,9.9946 2.77898,0.30373 9.36367,7.89869 15.15454,5.1503 11.25023,7.84711 17.5247,15.05344 30.16983,13.40949 9.75835,-1.18344 6.01776,6.40668 19.98997,8.94233 11.32682,2.05557 3.00837,12.82132 19.48006,11.2326 3.53205,7.65944 9.42439,4.66893 10.68694,13.99662"
         id="rect12-5-2"
         inkscape:connector-curvature="0"
         sodipodi:nodetypes="ccsssssssssc" /><path
         style="fill:none;stroke:#008000;stroke-width:1;stroke-miterlimit:4;stroke-dasharray:none"
         d="m 36.285695,173.63288 c 13.739851,3.52422 5.0886,7.13691 10.494486,6.89386 6.190949,0.0768 -0.657379,-1.51907 9.049047,-2.13261 5.583847,-0.35295 6.023223,8.02921 10.597028,5.75543 3.412648,-1.69654 2.805376,11.24534 10.447795,9.36176 4.404255,-1.08548 -0.340709,-2.32268 9.940168,-1.00968 14.076651,1.79776 21.036581,6.77436 25.354301,6.68048 2.30265,-0.0501 6.41819,-1.77471 10.42406,-1.33689 2.77898,0.30373 5.37709,7.89869 11.16796,5.1503 0.93229,-0.44247 5.28361,0.60479 12.83116,0.25127 4.73451,-0.22176 14.18899,5.26523 20.32861,4.52064 9.75835,-1.18344 6.01776,-0.56983 19.98997,1.96582 11.32682,2.05557 28.25669,13.81797 44.72838,12.22925 11.63474,-1.12219 21.50141,14.49521 32.42818,13.98257 6.4811,-0.30406 8.95183,5.63095 11.48024,11.97377"
         id="rect12-5-2-6"
         inkscape:connector-curvature="0"
         sodipodi:nodetypes="ccssssssssssssc" /><text
         xml:space="preserve"
         style="font-style:normal;font-weight:normal;font-size:10.5833px;line-height:1.25;font-family:sans-serif;letter-spacing:0px;word-spacing:0px;fill:#000000;fill-opacity:1;stroke:none;stroke-width:0.264583"
         x="-171.92801"
         y="16.753862"
         id="text859"
         transform="rotate(-90)"><tspan
           sodipodi:role="line"
           x="-171.92801"
           y="16.753862"
           id="tspan857"
           style="stroke-width:0.264583"><tspan
             x="-171.92801"
             y="16.753862"
             id="tspan855"
             style="stroke-width:0.264583">funkční stav</tspan></tspan></text><text
         xml:space="preserve"
         style="font-style:normal;font-weight:normal;font-size:10.5833px;line-height:1.25;font-family:sans-serif;letter-spacing:0px;word-spacing:0px;fill:#000000;fill-opacity:1;stroke:none;stroke-width:0.264583"
         x="257.77969"
         y="276.88187"
         id="text890"><tspan
           sodipodi:role="line"
           x="257.77969"
           y="276.88187"
           id="tspan888"
           style="stroke-width:0.264583"><tspan
             x="257.77969"
             y="276.88187"
             id="tspan886"
             style="stroke-width:0.264583">čas</tspan></tspan></text><text
         xml:space="preserve"
         style="font-style:normal;font-weight:normal;font-size:10.5833px;line-height:1.25;font-family:sans-serif;letter-spacing:0px;word-spacing:0px;fill:#000000;fill-opacity:1;stroke:none;stroke-width:0.264583"
         x="269.47409"
         y="255.8381"
         id="text884"><tspan
           sodipodi:role="line"
           x="269.47409"
           y="255.8381"
           id="tspan882"
           style="stroke-width:0.264583"><tspan
             x="269.47409"
             y="255.8381"
             id="tspan880"
             style="stroke-width:0.264583">smrt</tspan></tspan></text><path
         style="fill:#000000;stroke:#000000;stroke-width:0.287335;stroke-miterlimit:4;stroke-dasharray:none"
         d="m 28.589408,97.246703 h -8.754725 l 4.377362,-4.377362 z"
         id="rect850"
         inkscape:connector-curvature="0"
         sodipodi:nodetypes="cccc" /><path
         sodipodi:nodetypes="cccc"
         inkscape:connector-curvature="0"
         id="path853"
         d="m 287.51175,265.01935 v -8.75472 l 4.37737,4.37736 z"
         style="fill:#000000;stroke:#000000;stroke-width:0.287335;stroke-miterlimit:4;stroke-dasharray:none" /><text
         xml:space="preserve"
         style="font-size:5.64444px;line-height:0;font-family:'DejaVu Sans';-inkscape-font-specification:'DejaVu Sans';text-align:center;writing-mode:lr-tb;direction:ltr;text-anchor:middle;opacity:0.8;fill:none;stroke:#ff6600;stroke-width:0.579001"
         x="232.08603"
         y="167.57677"
         id="text1"
         transform="rotate(25.900621)"><tspan
           sodipodi:role="line"
           id="tspan1"
           style="font-size:5.64444px;fill:#ff0000;fill-opacity:1;stroke:none;stroke-width:0.579"
           x="232.08603"
           y="167.57677">bulbární</tspan></text><text
         xml:space="preserve"
         style="font-size:5.64444px;line-height:0;font-family:'DejaVu Sans';-inkscape-font-specification:'DejaVu Sans';text-align:center;writing-mode:lr-tb;direction:ltr;text-anchor:middle;opacity:0.8;fill:#ff0000;fill-opacity:1;stroke:none;stroke-width:0.579001"
         x="275.37683"
         y="112.14793"
         id="text2"
         transform="rotate(33.539633)"><tspan
           sodipodi:role="line"
           id="tspan2"
           style="fill:#ff6600;stroke-width:0.579"
           x="275.37683"
           y="112.14793">míšní</tspan></text><text
         xml:space="preserve"
         style="font-size:5.64444px;line-height:0;font-family:'DejaVu Sans';-inkscape-font-specification:'DejaVu Sans';text-align:center;writing-mode:lr-tb;direction:ltr;text-anchor:middle;opacity:0.8;fill:#ff6600;fill-opacity:1;stroke:none;stroke-width:0.579001"
         x="297.53955"
         y="104.53849"
         id="text3"
         transform="rotate(29.428653)"><tspan
           sodipodi:role="line"
           id="tspan3"
           style="fill:#800080;stroke-width:0.579"
           x="297.53955"
           y="104.53849">progresivní muskulární atrofie</tspan></text><text
         xml:space="preserve"
         style="font-size:5.64444px;line-height:0;font-family:'DejaVu Sans';-inkscape-font-specification:'DejaVu Sans';text-align:center;writing-mode:lr-tb;direction:ltr;text-anchor:middle;opacity:0.8;fill:#338000;fill-opacity:1;stroke:none;stroke-width:0.579001"
         x="260.62479"
         y="155.85498"
         id="text4"
         transform="rotate(13.55079)"><tspan
           sodipodi:role="line"
           id="tspan4"
           style="fill:#338000;stroke-width:0.579"
           x="260.62479"
           y="155.85498">primární laterální skleróza</tspan></text></g></g></svg>
